<svg xmlns="http://www.w3.org/2000/svg" height="20" width="20" xml:space="preserve" y="0" x="0" id="svg2985" version="1.1" viewBox="-10.31835 70.021 1000.4257 312.126"><style id="style636" type="text/css">.st0{fill:#107c10}</style><g id="g4146"><path d="M409.1 885c-69.2-6.6-139.3-31.5-199.6-70.9-50.5-33-61.9-46.5-61.9-73.6 0-54.3 59.7-149.5 161.7-257.9 58-61.6 138.7-133.8 147.4-131.9 17 3.8 152.7 136.4 203.5 198.7C740.6 648.2 777.6 729 758.8 765 744.5 792.4 656 845.9 591 866.4c-53.6 17-124 24.2-181.9 18.6zM79.5 684.1C37.6 619.7 16.4 556.2 6.1 464.5c-3.4-30.3-2.2-47.6 7.7-109.8 12.3-77.5 56.3-167.1 109.3-222.3 22.6-23.5 24.6-24.1 52.1-14.8 33.4 11.3 69 35.9 124.3 86l32.3 29.2-17.6 21.7C232.3 355.1 146 497.7 113.5 585.9 95.8 633.8 88.7 682 96.3 702c5.1 13.5.4 8.5-16.8-17.9zm736 10.9c4.1-20.2-1.1-57.4-13.4-94.9-26.5-81.2-115.4-232.4-197-335.1l-25.7-32.3 27.8-25.6c36.3-33.4 61.5-53.4 88.7-70.3 21.5-13.4 52.1-25.2 65.3-25.2 8.1 0 36.7 29.7 59.8 62.2 35.8 50.2 62.1 111.2 75.4 174.6 8.6 41 9.3 128.7 1.4 169.5-6.5 33.5-20.3 77-33.7 106.6-10.1 22.1-35.1 65-46.1 79-5.6 7-5.6 7-2.5-8.5zm-399-598.8C378.8 77 320.7 56.5 288.6 50.9c-11.3-1.9-30.4-3-42.7-2.4-26.5 1.3-25.3 0 17.2-20.1 35.3-16.7 64.8-26.5 104.8-34.9 45-9.5 129.5-9.6 173.8-.2 47.8 10.1 104.1 31.1 135.8 50.6l9.4 5.8-21.6-1.1c-43-2.2-105.6 15.2-172.9 48-20.3 9.9-37.9 17.8-39.2 17.5-1.2-.2-17.8-8.3-36.7-17.9z" class="st0" id="path4148"/></g></svg>